<svg width="115" height="23" viewBox="0 0 115 23" fill="none" xmlns="http://www.w3.org/2000/svg">
<path d="M107.052 17.2066V5.10581H110.244L110.397 6.35674C110.941 6.01635 111.614 5.71 112.414 5.43769C113.23 5.14836 114.03 4.95264 114.813 4.85052V7.45449C114.354 7.52256 113.852 7.62468 113.307 7.76084C112.762 7.89699 112.243 8.05016 111.75 8.22036C111.256 8.39055 110.839 8.56925 110.499 8.75647V17.2066H107.052Z" fill="#272938"/>
<path d="M99.5216 17.4619C97.4282 17.4619 95.7688 16.9428 94.5434 15.9046C93.318 14.8494 92.7053 13.2581 92.7053 11.1307C92.7053 9.20748 93.2159 7.68425 94.2371 6.56097C95.2752 5.42067 96.8155 4.85052 98.8578 4.85052C100.73 4.85052 102.16 5.34409 103.147 6.33121C104.151 7.30131 104.653 8.57776 104.653 10.1606V12.3561H95.8965C96.0837 13.3262 96.5262 13.9899 97.224 14.3473C97.9388 14.7047 98.9429 14.8834 100.236 14.8834C100.883 14.8834 101.538 14.8239 102.202 14.7047C102.883 14.5856 103.462 14.4324 103.938 14.2452V16.696C103.376 16.9513 102.721 17.1385 101.972 17.2576C101.224 17.3938 100.407 17.4619 99.5216 17.4619ZM95.8965 10.2372H101.64V9.5734C101.64 8.8756 101.436 8.33098 101.028 7.93954C100.619 7.53107 99.93 7.32684 98.9599 7.32684C97.8196 7.32684 97.0197 7.5566 96.5602 8.01613C96.1177 8.47565 95.8965 9.21599 95.8965 10.2372Z" fill="#272938"/>
<path d="M80.4763 17.2066V0H83.9227V9.47127L88.4413 5.10581H92.3728L87.4967 10.0584L92.6536 17.2066H89.003L85.3268 11.871L83.9227 13.224V17.2066H80.4763Z" fill="#272938"/>
<path d="M74.189 17.4619C72.0275 17.4619 70.3681 16.9258 69.2108 15.8535C68.0705 14.7813 67.5004 13.2155 67.5004 11.1562C67.5004 9.02878 68.1131 7.44598 69.3385 6.4078C70.5809 5.36962 72.2317 4.85052 74.2911 4.85052C75.1421 4.85052 75.8739 4.91009 76.4866 5.02923C77.0993 5.14836 77.695 5.34409 78.2736 5.6164V8.09271C77.8481 7.88848 77.3546 7.7268 76.7929 7.60766C76.2313 7.48853 75.6271 7.42896 74.9804 7.42896C73.6869 7.42896 72.6998 7.70127 72.019 8.24589C71.3382 8.77349 70.9978 9.74359 70.9978 11.1562C70.9978 12.4497 71.3042 13.3942 71.9169 13.9899C72.5466 14.5856 73.5593 14.8834 74.9548 14.8834C75.5505 14.8834 76.1292 14.8239 76.6908 14.7047C77.2695 14.5856 77.8056 14.4069 78.2992 14.1686V16.7215C77.1589 17.2151 75.7888 17.4619 74.189 17.4619Z" fill="#272938"/>
<path d="M57.679 17.4619C56.9132 17.4619 56.1983 17.3257 55.5346 17.0534C54.8879 16.7641 54.3603 16.3471 53.9518 15.8025C53.5603 15.2408 53.3646 14.5431 53.3646 13.7091C53.3646 12.5177 53.7816 11.5647 54.6155 10.8498C55.4665 10.135 56.7174 9.77763 58.3683 9.77763H61.9424V9.44575C61.9424 8.6969 61.7296 8.1693 61.3042 7.86295C60.8957 7.5566 60.0617 7.40343 58.8023 7.40343C57.4237 7.40343 56.0962 7.61617 54.8198 8.04166V5.6164C55.3814 5.39514 56.0622 5.21644 56.8621 5.08029C57.679 4.92711 58.564 4.85052 59.5171 4.85052C61.3382 4.85052 62.7423 5.22495 63.7294 5.9738C64.7336 6.70563 65.2356 7.88848 65.2356 9.52234V17.2066H62.2487L62.07 16.1088C61.5935 16.5343 61.0063 16.8662 60.3085 17.1045C59.6107 17.3427 58.7342 17.4619 57.679 17.4619ZM58.6236 15.1898C59.3895 15.1898 60.0532 15.0621 60.6149 14.8069C61.1765 14.5516 61.619 14.2282 61.9424 13.8367V11.9221H58.4449C57.1004 11.9221 56.4281 12.4752 56.4281 13.5815C56.4281 14.6537 57.1599 15.1898 58.6236 15.1898Z" fill="#272938"/>
<path d="M45.1246 17.2066V5.10581H48.3157L48.4689 6.35674C49.0135 6.01635 49.6858 5.71 50.4857 5.43769C51.3026 5.14836 52.1025 4.95264 52.8854 4.85052V7.45449C52.4259 7.52256 51.9238 7.62468 51.3792 7.76084C50.8346 7.89699 50.3155 8.05016 49.8219 8.22036C49.3284 8.39055 48.9114 8.56925 48.571 8.75647V17.2066H45.1246Z" fill="#272938"/>
<path d="M36.9171 17.2066V3.42092H31.8624V0.7659H45.3928V3.42092H40.3635V17.2066H36.9171Z" fill="#272938"/>
<path d="M20.5927 17.2066V5.10581H23.7838L23.9114 6.25462C24.405 5.8802 25.0262 5.55683 25.775 5.28452C26.5409 4.99519 27.3408 4.85052 28.1748 4.85052C29.7746 4.85052 30.9404 5.22495 31.6723 5.9738C32.4041 6.72265 32.77 7.87997 32.77 9.44575V17.2066H29.3236V9.62445C29.3236 8.80753 29.1534 8.22887 28.813 7.88848C28.4896 7.54809 27.8769 7.3779 26.9749 7.3779C26.4473 7.3779 25.9112 7.49703 25.3666 7.73531C24.839 7.97358 24.3965 8.27141 24.0391 8.62882V17.2066H20.5927Z" fill="#272938"/>
<path d="M13.931 2.88482V0.178741H17.6838V2.88482H13.931ZM14.2119 17.2066V7.65875H12.3993L12.7056 5.10585H17.6583V17.2066H14.2119Z" fill="#272938"/>
<path d="M0 22.5811V0.7659H11.5647V3.44645H3.44642V7.65874H10.6201V10.3138H3.44642V19.0941H94.4874L97.9737 22.5811H0Z" fill="#272938"/>
</svg>
